<?xml version="1.0" encoding="utf-8"?>
<!-- Generator: Adobe Illustrator 18.0.0, SVG Export Plug-In . SVG Version: 6.00 Build 0)  -->
<!DOCTYPE svg PUBLIC "-//W3C//DTD SVG 1.1//EN" "http://www.w3.org/Graphics/SVG/1.1/DTD/svg11.dtd">
<svg version="1.1" id="Capa_1" xmlns="http://www.w3.org/2000/svg" xmlns:xlink="http://www.w3.org/1999/xlink" x="0px" y="0px"
	 viewBox="0 0 800 800" enable-background="new 0 0 800 800" xml:space="preserve">
<g>
	<path fill="#FFFFFF" d="M400,126.5c-150.8,0-273.5,122.7-273.5,273.5c0,150.8,122.7,273.5,273.5,273.5
		c150.8,0,273.5-122.7,273.5-273.5C673.5,249.2,550.8,126.5,400,126.5L400,126.5z M400,651.3c-138.5,0-251.3-112.7-251.3-251.3
		c0-138.5,112.7-251.2,251.3-251.2c138.5,0,251.3,112.7,251.3,251.2C651.3,538.5,538.5,651.3,400,651.3L400,651.3z M400,651.3"/>
	<path fill="#FFFFFF" d="M460.4,353.1l4.2-27l-25,11.2l-68.6,30.8L413.5,232L349,219l-16.4,173.1l-2.5,26.9l23.2-10.4l73.6-33.1
		l-15.6,100.3l-30-2.9L415.7,581l54.3-99.4l-29.1-2.8L460.4,353.1z M460.4,353.1"/>
	<path fill="#FFFFFF" d="M400,45.7C204.7,45.7,45.7,204.7,45.7,400c0,195.3,158.9,354.3,354.3,354.3
		c195.3,0,354.3-158.9,354.3-354.3C754.3,204.7,595.4,45.7,400,45.7L400,45.7z M400,725.5c-179.5,0-325.4-146-325.4-325.5
		c0-179.5,146-325.4,325.4-325.4c179.5,0,325.5,146,325.5,325.4C725.5,579.5,579.5,725.5,400,725.5L400,725.5z M400,725.5"/>
</g>
<g>
</g>
<g>
</g>
<g>
</g>
<g>
</g>
<g>
</g>
<g>
</g>
</svg>
