<?xml version="1.0" encoding="utf-8"?>
<!-- Generator: Adobe Illustrator 18.0.0, SVG Export Plug-In . SVG Version: 6.00 Build 0)  -->
<!DOCTYPE svg PUBLIC "-//W3C//DTD SVG 1.1//EN" "http://www.w3.org/Graphics/SVG/1.1/DTD/svg11.dtd">
<svg version="1.1" id="Capa_1" xmlns="http://www.w3.org/2000/svg" xmlns:xlink="http://www.w3.org/1999/xlink" x="0px" y="0px"
	 viewBox="0 0 800 800" enable-background="new 0 0 800 800" xml:space="preserve">
<path fill="#FFFFFF" d="M401.9,162c-109.3,0-198.2,88.9-198.2,198.2c0,95,46.7,160.9,69.1,192.5c1.3,1.8,2.5,3.5,3.6,5.1
	c16.6,23.8,17,55.9,17,56.2v80.9c0,0,0,0.1,0,0.1c0,0.3,0,0.6,0,0.9c0,0.2,0,0.4,0,0.6c0,0.3,0.1,0.5,0.1,0.8c0,0.2,0.1,0.4,0.1,0.6
	c0,0.2,0.1,0.5,0.2,0.7c0.1,0.2,0.1,0.4,0.2,0.7c0.1,0.2,0.1,0.4,0.2,0.6c0.1,0.2,0.2,0.5,0.3,0.7c0.1,0.2,0.2,0.3,0.2,0.5
	c0.1,0.3,0.2,0.5,0.4,0.8c0.1,0.2,0.2,0.3,0.3,0.4c0.2,0.3,0.3,0.5,0.5,0.8c0.1,0.1,0.2,0.3,0.3,0.4c0.2,0.3,0.4,0.5,0.6,0.8
	c0,0,0,0,0.1,0.1c0.6,0.7,15,17.5,33.9,34.5c27.6,24.8,49.9,36.9,68.2,36.9c38.9,0,96.2-59.1,107.3-70.9c0.1-0.1,0.2-0.2,0.3-0.3
	c0.2-0.2,0.3-0.4,0.5-0.6c0.1-0.2,0.3-0.4,0.4-0.5c0.1-0.2,0.3-0.4,0.4-0.6c0.1-0.2,0.3-0.4,0.4-0.6c0.1-0.2,0.2-0.4,0.3-0.6
	c0.1-0.2,0.2-0.4,0.3-0.6c0.1-0.2,0.2-0.4,0.3-0.7c0.1-0.2,0.2-0.4,0.2-0.7c0.1-0.2,0.1-0.5,0.2-0.7c0.1-0.2,0.1-0.5,0.2-0.7
	c0-0.2,0.1-0.5,0.1-0.7c0-0.2,0.1-0.5,0.1-0.7c0-0.2,0.1-0.5,0.1-0.7c0-0.3,0-0.5,0-0.8c0-0.1,0-0.3,0-0.4v-80.8
	c0-0.3,0.4-32.4,17-56.2c1.1-1.6,2.3-3.3,3.6-5.1c22.4-31.7,69.1-97.5,69.1-192.5C600.1,250.9,511.2,162,401.9,162L401.9,162z
	 M481.4,634v46.2H322.5V634H481.4z M390.3,605l-40.8-178.7l14.8,5.2c1.6,0.6,3.2,0.8,4.8,0.8c1.6,0,3.3-0.3,4.8-0.8l27.9-9.9
	l27.9,9.9c3.1,1.1,6.6,1.1,9.7,0l14.8-5.2L413.6,605H390.3z M341.8,709.3H460c-22.1,19.5-47.2,37.3-60.8,37.3
	C385.6,746.6,362.1,728.7,341.8,709.3L341.8,709.3z M507.3,535.9c-1.3,1.9-2.6,3.6-3.7,5.2c-16,22.9-20.5,50.1-21.8,63.9h-38.5
	l55.5-243c1.8-7.8-3.1-15.6-10.9-17.4c-7.8-1.8-15.6,3.1-17.4,10.9l-8.5,37.2l-27.3,9.7l-27.9-9.9c-3.1-1.1-6.6-1.1-9.7,0l-27.9,9.9
	l-27.3-9.7l-8.5-37.2c-1.8-7.8-9.6-12.7-17.4-10.9c-7.8,1.8-12.7,9.6-10.9,17.4l55.5,243H322c-1.3-13.8-5.7-41-21.8-63.9
	c-1.1-1.6-2.4-3.4-3.7-5.2c-20.7-29.2-63.8-90-63.8-175.7c0-93.3,75.9-169.1,169.1-169.1c93.3,0,169.1,75.9,169.1,169.1
	C571.1,445.9,528,506.7,507.3,535.9L507.3,535.9z M507.3,535.9"/>
<path fill="#FFFFFF" d="M616.2,104.3c-5.7-5.7-14.9-5.7-20.5,0l-58.8,58.8c-5.7,5.7-5.7,14.9,0,20.5c2.8,2.8,6.6,4.2,10.3,4.2
	c3.7,0,7.4-1.4,10.3-4.2l58.8-58.8C621.9,119.2,621.9,110,616.2,104.3L616.2,104.3z M616.2,104.3"/>
<path fill="#FFFFFF" d="M179.9,104.3c-5.7,5.7-5.7,14.9,0,20.5l58.8,58.8c2.8,2.8,6.6,4.2,10.3,4.2c3.7,0,7.4-1.4,10.3-4.2
	c5.7-5.7,5.7-14.9,0-20.5l-58.8-58.8C194.7,98.6,185.5,98.6,179.9,104.3L179.9,104.3z M179.9,104.3"/>
<path fill="#FFFFFF" d="M401.9,33.9c-8,0-14.5,6.5-14.5,14.5v83.2c0,4,1.6,7.6,4.3,10.3c2.6,2.6,6.3,4.3,10.3,4.3
	c8,0,14.5-6.5,14.5-14.5l0-83.2C416.5,40.4,410,33.9,401.9,33.9L401.9,33.9z M401.9,33.9"/>
<g>
</g>
<g>
</g>
<g>
</g>
<g>
</g>
<g>
</g>
<g>
</g>
</svg>
