<?xml version="1.0" encoding="utf-8"?>
<!-- Generator: Adobe Illustrator 19.0.0, SVG Export Plug-In . SVG Version: 6.00 Build 0)  -->
<svg version="1.1" id="Capa_1" xmlns="http://www.w3.org/2000/svg" xmlns:xlink="http://www.w3.org/1999/xlink" x="0px" y="0px"
	 viewBox="102 20.9 800 800" style="enable-background:new 102 20.9 800 800;" xml:space="preserve">
<style type="text/css">
	.st0{fill:#2C468E;}
</style>
<path class="st0" d="M503.9,182.9c-109.3,0-198.2,88.9-198.2,198.2c0,95,46.7,160.9,69.1,192.5c1.3,1.8,2.5,3.5,3.6,5.1
	c16.6,23.8,17,55.9,17,56.2v80.9v0.1c0,0.3,0,0.6,0,0.9c0,0.2,0,0.4,0,0.6c0,0.3,0.1,0.5,0.1,0.8c0,0.2,0.1,0.4,0.1,0.6
	c0,0.2,0.1,0.5,0.2,0.7s0.1,0.4,0.2,0.7c0.1,0.2,0.1,0.4,0.2,0.6c0.1,0.2,0.2,0.5,0.3,0.7c0.1,0.2,0.2,0.3,0.2,0.5
	c0.1,0.3,0.2,0.5,0.4,0.8c0.1,0.2,0.2,0.3,0.3,0.4c0.2,0.3,0.3,0.5,0.5,0.8c0.1,0.1,0.2,0.3,0.3,0.4c0.2,0.3,0.4,0.5,0.6,0.8
	c0,0,0,0,0.1,0.1c0.6,0.7,15,17.5,33.9,34.5c27.6,24.8,49.9,36.9,68.2,36.9c38.9,0,96.2-59.1,107.3-70.9c0.1-0.1,0.2-0.2,0.3-0.3
	c0.2-0.2,0.3-0.4,0.5-0.6c0.1-0.2,0.3-0.4,0.4-0.5c0.1-0.2,0.3-0.4,0.4-0.6c0.1-0.2,0.3-0.4,0.4-0.6c0.1-0.2,0.2-0.4,0.3-0.6
	c0.1-0.2,0.2-0.4,0.3-0.6c0.1-0.2,0.2-0.4,0.3-0.7c0.1-0.2,0.2-0.4,0.2-0.7c0.1-0.2,0.1-0.5,0.2-0.7c0.1-0.2,0.1-0.5,0.2-0.7
	c0-0.2,0.1-0.5,0.1-0.7s0.1-0.5,0.1-0.7s0.1-0.5,0.1-0.7c0-0.3,0-0.5,0-0.8c0-0.1,0-0.3,0-0.4v-80.8c0-0.3,0.4-32.4,17-56.2
	c1.1-1.6,2.3-3.3,3.6-5.1c22.4-31.7,69.1-97.5,69.1-192.5C702.1,271.8,613.2,182.9,503.9,182.9L503.9,182.9z M583.4,654.9v46.2
	H424.5v-46.2H583.4z M492.3,625.9l-40.8-178.7l14.8,5.2c1.6,0.6,3.2,0.8,4.8,0.8c1.6,0,3.3-0.3,4.8-0.8l27.9-9.9l27.9,9.9
	c3.1,1.1,6.6,1.1,9.7,0l14.8-5.2l-40.6,178.7H492.3z M443.8,730.2H562c-22.1,19.5-47.2,37.3-60.8,37.3
	C487.6,767.5,464.1,749.6,443.8,730.2L443.8,730.2z M609.3,556.8c-1.3,1.9-2.6,3.6-3.7,5.2c-16,22.9-20.5,50.1-21.8,63.9h-38.5
	l55.5-243c1.8-7.8-3.1-15.6-10.9-17.4c-7.8-1.8-15.6,3.1-17.4,10.9l-8.5,37.2l-27.3,9.7l-27.9-9.9c-3.1-1.1-6.6-1.1-9.7,0l-27.9,9.9
	l-27.3-9.7l-8.5-37.2c-1.8-7.8-9.6-12.7-17.4-10.9c-7.8,1.8-12.7,9.6-10.9,17.4l55.5,243H424c-1.3-13.8-5.7-41-21.8-63.9
	c-1.1-1.6-2.4-3.4-3.7-5.2c-20.7-29.2-63.8-90-63.8-175.7c0-93.3,75.9-169.1,169.1-169.1c93.3,0,169.1,75.9,169.1,169.1
	C673.1,466.8,630,527.6,609.3,556.8L609.3,556.8z"/>
<path class="st0" d="M718.2,125.2c-5.7-5.7-14.9-5.7-20.5,0L638.9,184c-5.7,5.7-5.7,14.9,0,20.5c2.8,2.8,6.6,4.2,10.3,4.2
	s7.4-1.4,10.3-4.2l58.8-58.8C723.9,140.1,723.9,130.9,718.2,125.2L718.2,125.2z"/>
<path class="st0" d="M281.9,125.2c-5.7,5.7-5.7,14.9,0,20.5l58.8,58.8c2.8,2.8,6.6,4.2,10.3,4.2s7.4-1.4,10.3-4.2
	c5.7-5.7,5.7-14.9,0-20.5l-58.8-58.8C296.7,119.5,287.5,119.5,281.9,125.2L281.9,125.2z"/>
<path class="st0" d="M503.9,54.8c-8,0-14.5,6.5-14.5,14.5v83.2c0,4,1.6,7.6,4.3,10.3c2.6,2.6,6.3,4.3,10.3,4.3
	c8,0,14.5-6.5,14.5-14.5V69.4C518.5,61.3,512,54.8,503.9,54.8L503.9,54.8z"/>
</svg>
