<?xml version="1.0" encoding="utf-8"?>
<!-- Generator: Adobe Illustrator 18.0.0, SVG Export Plug-In . SVG Version: 6.00 Build 0)  -->
<!DOCTYPE svg PUBLIC "-//W3C//DTD SVG 1.1//EN" "http://www.w3.org/Graphics/SVG/1.1/DTD/svg11.dtd">
<svg version="1.1" id="Capa_1" xmlns="http://www.w3.org/2000/svg" xmlns:xlink="http://www.w3.org/1999/xlink" x="0px" y="0px"
	 viewBox="0 0 800 800" enable-background="new 0 0 800 800" xml:space="preserve">
<g>
	<g>
		<path fill="#FFFFFF" d="M207.7,779.6l246.1-247.3c10.1-10.1,2.9-27.3-11.4-27.3h-19.6c-13.4,0-20.9-15.5-12.6-26l130.5-164.6
			c8.3-10.5,0.9-26-12.6-26h-65.6c-13.2,0-20.8-15.1-12.8-25.6L616.5,41.1c7.9-10.6,0.4-25.6-12.8-25.6H340
			c-6.1,0-11.7,3.4-14.3,8.9L196.7,285.2c-5.3,10.7,2.5,23.2,14.3,23.2h59.5c11.9,0,19.6,12.5,14.3,23.2l-88.1,178.4
			c-5.3,10.7,2.5,23.1,14.3,23.1h56c11.9,0,19.6,12.3,14.4,23L182,761.4C174.1,777.6,195,792.5,207.7,779.6L207.7,779.6z
			 M207.7,779.6"/>
	</g>
</g>
<g>
</g>
<g>
</g>
<g>
</g>
<g>
</g>
<g>
</g>
<g>
</g>
</svg>
