<?xml version="1.0" encoding="utf-8"?>
<!-- Generator: Adobe Illustrator 18.0.0, SVG Export Plug-In . SVG Version: 6.00 Build 0)  -->
<!DOCTYPE svg PUBLIC "-//W3C//DTD SVG 1.1//EN" "http://www.w3.org/Graphics/SVG/1.1/DTD/svg11.dtd">
<svg version="1.1" id="Capa_1" xmlns="http://www.w3.org/2000/svg" xmlns:xlink="http://www.w3.org/1999/xlink" x="0px" y="0px"
	 viewBox="0 0 800 800" enable-background="new 0 0 800 800" xml:space="preserve">
<g>
	<path fill="#FFFFFF" d="M266.9,270.4h261.8v261.8H266.9V270.4z M694.7,368.9v62.2h47.5c21.5,0,38.9,17.4,38.9,38.9
		c0,21.5-17.4,38.9-38.9,38.9h-47.5v64.8h47.5c21.5,0,38.9,17.4,38.9,38.9c0,21.5-17.4,38.9-38.9,38.9h-47.5v3.9
		c0,21.5-17,40.2-38.5,40.2h-5.6v46.7c0,21.5-17.4,38.9-38.9,38.9c-21.5,0-38.9-17.4-38.9-38.9v-46.7H508v46.7
		c0,21.5-17.4,38.9-38.9,38.9c-21.5,0-38.9-17.4-38.9-38.9v-46.7H368v46.7c0,21.5-17.4,38.9-38.9,38.9c-21.5,0-38.9-17.4-38.9-38.9
		v-46.7h-64.8v46.7c0,21.5-17.4,38.9-38.9,38.9c-21.5,0-38.9-17.4-38.9-38.9v-46.7h-3c-21.5,0-41.1-18.7-41.1-40.2v-3.9H57.8
		c-21.5,0-38.9-17.4-38.9-38.9c0-21.5,17.4-38.9,38.9-38.9h45.8v-64.8H57.8c-21.5,0-38.9-17.4-38.9-38.9c0-21.5,17.4-38.9,38.9-38.9
		h45.8v-62.2H57.8c-21.5,0-38.9-17.4-38.9-38.9c0-21.5,17.4-38.9,38.9-38.9h45.8v-64.8H57.8c-21.5,0-38.9-17.4-38.9-38.9
		c0-21.5,17.4-38.9,38.9-38.9h45.8v-3.9c0-21.5,19.6-37.6,41.1-37.6h3V57.8c0-21.5,17.4-38.9,38.9-38.9c21.5,0,38.9,17.4,38.9,38.9
		V107h64.8V57.8c0-21.5,17.4-38.9,38.9-38.9c21.5,0,38.9,17.4,38.9,38.9V107h62.2V57.8c0-21.5,17.4-38.9,38.9-38.9
		c21.5,0,38.9,17.4,38.9,38.9V107h64.8V57.8c0-21.5,17.4-38.9,38.9-38.9c21.5,0,38.9,17.4,38.9,38.9V107h5.6
		c21.5,0,38.5,16.1,38.5,37.6v3.9h47.5c21.5,0,38.9,17.4,38.9,38.9c0,21.5-17.4,38.9-38.9,38.9h-47.5v64.8h47.5
		c21.5,0,38.9,17.4,38.9,38.9c0,21.5-17.4,38.9-38.9,38.9H694.7z M606.5,231.5c0-21.5-17.4-38.9-38.9-38.9H228
		c-21.5,0-38.9,17.4-38.9,38.9v339.6c0,21.5,17.4,38.9,38.9,38.9h339.6c21.5,0,38.9-17.4,38.9-38.9V231.5z M606.5,231.5"/>
</g>
<g>
</g>
<g>
</g>
<g>
</g>
<g>
</g>
<g>
</g>
<g>
</g>
</svg>
