<?xml version="1.0" encoding="utf-8"?>
<!-- Generator: Adobe Illustrator 18.0.0, SVG Export Plug-In . SVG Version: 6.00 Build 0)  -->
<!DOCTYPE svg PUBLIC "-//W3C//DTD SVG 1.1//EN" "http://www.w3.org/Graphics/SVG/1.1/DTD/svg11.dtd">
<svg version="1.1" id="Capa_1" xmlns="http://www.w3.org/2000/svg" xmlns:xlink="http://www.w3.org/1999/xlink" x="0px" y="0px"
	 viewBox="0 0 800 800" enable-background="new 0 0 800 800" xml:space="preserve">
<g>
	<path fill="#FFFFFF" d="M331.8,173.2h-10.5c-12.3,0-22.1,9.2-22.1,20.3v86.2H354v-86.2C353.9,182.4,344,173.2,331.8,173.2
		L331.8,173.2z M331.8,173.2"/>
	<path fill="#FFFFFF" d="M478.7,173.2h-10.5c-12.3,0-22.2,9.2-22.2,20.3v86.2h54.8v-86.2C500.9,182.4,491,173.2,478.7,173.2
		L478.7,173.2z M478.7,173.2"/>
	<path fill="#FFFFFF" d="M400,22.6c-212.9,0-386,173.2-386,386c0,102.7,39.9,199.5,112.4,272.3c42.9,43.1,96,75.9,153.6,94.7
		c3.9,1.2,7.8,1.8,11.5,1.8c15.7,0,30.2-9.9,35.4-25.6c6.4-19.5-4.3-40.5-23.8-46.8c-46.4-15.2-89.3-41.7-124-76.5
		c-58.5-58.8-90.8-136.9-90.8-219.9C88.3,236.7,228.2,96.9,400,96.9c171.9,0,311.7,139.8,311.7,311.7c0,83.3-32.4,161.5-91.2,220.3
		c-22.6,20.3-78.6,61.1-112.3,61.1c-17.3,0-30.2-5.4-40.7-17.1c-26.6-29.6-32.5-89.7-32.2-131.4c64.6-3.3,115.9-56.5,115.9-121.8
		V303.9H248.8v115.7c0,64.1,49.3,116.5,112,121.6c-0.4,49.8,6.6,131.5,51.2,181.2c24.5,27.5,57.8,42,96.1,42
		c72,0,153.8-72.7,162.9-81l1.2-1.1c73.3-73,113.7-170.2,113.7-273.7C786,195.8,612.8,22.6,400,22.6L400,22.6z M400,22.6"/>
</g>
<g>
</g>
<g>
</g>
<g>
</g>
<g>
</g>
<g>
</g>
<g>
</g>
</svg>
